<svg xmlns="http://www.w3.org/2000/svg" height="556.85" viewBox="0 0 589.84003 556.85498" width="589.84"><g transform="translate(-6.3707 -21.497)"><path fill="#0072af" d="m594.22 357.1s-35.385-61.805-94.945-62.254c17.684 56.21-11.872 116.67-11.872 116.67l31.35-15.969c-0.575 3.465-2.853 12.999-11.34 21.48-1.976 1.988-4.301 3.913-7.031 5.684-9.025 4.775-11.187 2.242-11.187 2.242l-27.639-27.785c21.828-31.901 33.573-69.583 33.573-109.08 0-29.927-6.748-58.814-19.492-84.937l49.72 42.506 5.343 4.566 4.975-4.968 28.212-28.218 5.46-5.454-5.542-5.379-62.196-60.365c11.111-1.295 21.865-6.18 30.381-14.686 20.062-20.063 20.062-52.718 0-72.771-20.071-20.076-52.726-20.065-72.787 0-8.885 8.883-13.829 20.246-14.844 31.879l-63.505-61.637-5.292-5.126-5.296 5.126-29.789 28.885-5.352 5.198 5.095 5.453 39.955 42.772c-24.504-10.93-51.24-16.662-78.864-16.662-27.589 0-54.308 5.731-78.791 16.625l39.933-42.735 5.088-5.453-5.355-5.198-29.79-28.885-5.289-5.138-5.288 5.138-63.504 61.637c-1.022-11.633-5.957-22.997-14.841-31.879-20.065-20.076-52.714-20.076-72.786 0-20.06 20.054-20.06 52.709 0 72.771 8.507 8.506 19.258 13.391 30.37 14.686l-62.201 60.365-5.536 5.379 5.465 5.454 28.207 28.218 4.974 4.968 5.339-4.566 49.659-42.422c-12.734 26.099-19.471 54.949-19.471 84.853 0 39.501 11.751 77.183 33.568 109.1l-27.649 27.772s-2.169 2.533-11.203-2.242c-2.714-1.771-5.04-3.695-7.027-5.684-8.48-8.481-10.766-18.016-11.329-21.48l31.345 15.969s-29.564-60.461-11.874-116.67c-59.553 0.45-94.945 62.254-94.945 62.254l27.638 14.081c-2.878 7.063-10.93 34.083 14.916 71.016 30.223 43.218 19.936 77.254 19.936 77.254s30.783-8.833 76.794 15.015c37.483 20.196 74.919 13.459 79.262 12.586l18.164 29.286s53.513-35.004 56.201-92.933c-44.484 11.646-117.57-6.046-117.57-6.046l15.306 24.669c-4.778-1.139-20.399-5.32-27.018-11.936-0.577-0.583-1.068-1.152-1.496-1.758-6.271-8.965 0.896-13.884 0.896-13.884l23.99-23.99c31.22 20.451 67.714 31.44 105.91 31.44 38.183 0 74.678-10.989 105.9-31.431l23.983 23.98s7.169 4.919 0.901 13.884c-0.428 0.605-0.938 1.175-1.49 1.758-6.628 6.615-22.249 10.797-27.031 11.936l15.303-24.669s-73.074 17.691-117.56 6.046c2.683 57.929 56.201 92.933 56.201 92.933l18.158-29.286c4.354 0.873 41.774 7.61 79.259-12.586 46.019-23.848 76.808-15.015 76.808-15.015s-10.294-34.036 19.937-77.254c25.841-36.933 17.789-63.953 14.904-71.016l27.642-14.08z"/><path fill="#fff" d="m227.12 34.092-68.984 66.943-10.312 10.01c1.74-4.35 2.7393-8.9204 3.0293-13.523 0.752-12.127-3.484-24.499-12.748-33.77-17.132-17.119-44.904-17.119-62.037 0-17.127 17.133-17.127 44.903 0 62.025 8.932 8.943 20.759 13.206 32.455 12.818 3.521-0.109 7.0196-0.65461 10.432-1.5996 1.072-0.316 2.1512-0.64325 3.1992-1.0312l-1.4121 1.3711-8.918 8.6523-67.66 65.672 28.217 28.219 65.338-55.846c7.538-11.788 16.413-22.849 26.549-32.992 11.588-11.583 24.384-21.52 38.1-29.688l54.53-58.373-29.78-28.885zm148.45 0-29.783 28.885 54.594 58.439c13.671 8.155 26.433 18.077 37.988 29.625 10.116 10.105 18.969 21.155 26.492 32.906l65.453 55.932 28.209-28.219-67.668-65.672-8.916-8.6523-1.4062-1.3711c1.056 0.388 2.1281 0.73025 3.2031 1.0312 3.407 0.957 6.9028 1.4906 10.424 1.5996 11.702 0.388 23.516-3.8766 32.459-12.809 17.134-17.134 17.134-44.902 0-62.035-17.133-17.119-44.912-17.119-62.037 0-9.26 9.27-13.505 21.643-12.752 33.77 0.289 4.602 1.2962 9.1705 3.0352 13.521l-10.312-9.9961-68.982-66.955zm-74.25 67.779c-34.455 0-66.751 9.413-94.461 25.793-25.531 15.098-47.17 36.11-63.014 61.143-18.192 28.766-28.74 62.8-28.74 99.283 0 102.68 83.532 186.22 186.21 186.22s186.22-83.544 186.22-186.22c0-36.507-10.567-70.592-28.803-99.367-15.804-24.974-37.395-45.921-62.859-60.996-27.737-16.418-60.061-25.855-94.557-25.855zm208.08 201.32c5.942 27.214 2.408 54.125-1.959 72.811-1.736 7.413-3.707 14.053-5.584 19.664l23.932-12.191 0.69726 12.191c-0.456 3.44-2.7849 15.896-13.629 26.754-2.478 2.458-5.2371 4.7131-8.2441 6.6641l-0.28321 0.19336-0.32031 0.16993c-12.051 6.374-17.789 3.3916-20.248 0.76562l-26.736-26.658c-5.64 7.571-11.865 14.796-18.668 21.592-7.562 7.562-15.649 14.408-24.162 20.539l22.549 22.605c1.588 1.286 5.2795 4.945 6.2285 10.168 0.585 3.248 1.8365 10.881-6.9355 17.012-8.767 6.131-22.243 17.062-49.516 18.672 4.985-8.228 15.293-24.414 15.293-24.414-6.999 1.282-59.386 10.103-89.592 4.5801 4.151 29.189 31.255 59.611 43.719 69.645l16.078-26.293s33.405 10.868 79.379-9.875l0.0371-0.0352 0.0703-0.0234c32.171-16.686 57.527-18.185 71.225-17.24-1.073-14.433-2.6798-33.007 22.785-72.641 13.994-21.785 15.423-37.548 15.207-48.117-0.15-7.329-3.6523-22.416-3.6523-22.416l26.221-13.133c-4.008-5.696-10.69-14.286-19.688-22.805-8.888-8.42-18.285-15.122-27.918-19.906-8.577-4.278-17.386-7.0423-26.285-8.2773zm-415.81 0.002c-8.905 1.235-17.712 3.9974-26.279 8.2754-9.637 4.784-19.035 11.486-27.924 19.906-8.996 8.519-15.679 17.11-19.682 22.805l26.219 13.133s-3.5003 15.087-3.6523 22.416c-0.218 10.568 1.219 26.332 15.207 48.117 25.47 39.634 23.853 58.208 22.785 72.641 13.692-0.946 39.059 0.55323 71.234 17.24l0.0547 0.0234 0.0488 0.0352c45.964 20.743 79.381 9.875 79.381 9.875l16.072 26.293c12.464-10.034 39.555-40.456 43.717-69.645-30.207 5.524-82.586-3.2981-89.602-4.5801 0 0 10.318 16.185 15.297 24.414-27.268-1.61-40.735-12.541-49.506-18.672-8.767-6.131-7.5284-13.764-6.9394-17.012 0.95-5.223 4.6474-8.882 6.2344-10.168l22.492-22.375c-8.633-6.181-16.837-13.11-24.5-20.77-6.773-6.772-12.982-13.972-18.605-21.506l-26.42 26.572c-2.454 2.626-8.2021 5.6084-20.246-0.76562l-0.30469-0.16993-0.29688-0.19336c-2.998-1.951-5.7653-4.2061-8.2383-6.6641-10.844-10.858-13.177-23.312-13.619-26.752l0.68555-12.191 23.93 12.191c-1.878-5.611-3.8432-12.253-5.5742-19.666-4.379-18.686-7.9048-45.595-1.9688-72.809z"/><path fill="#dc3832" d="m238.52 274.83v71.963c1.174 1.489 2.4642 2.8726 3.8652 4.1426 2.321 2.071 4.846 3.7687 7.543 5.2207v-81.326h-11.408zm22.822 0v86.004c2.447 0.8 4.9533 1.5624 7.4863 2.3144 1.314 0.388 2.6166 0.77478 3.9336 1.1758v-89.494h-11.42zm22.826 0v93.518c3.993 1.673 7.8458 3.7083 11.426 6.3613v-99.879h-11.426zm22.875 0v99.879c3.582-2.653 7.436-4.702 11.416-6.373v-93.506h-11.416zm45.66 0v81.326c2.693-1.452 5.2291-3.1487 7.5391-5.2207 1.411-1.27 2.6949-2.6526 3.8789-4.1426v-71.963h-11.418zm-22.832 0.002v89.492c1.322-0.4 2.6258-0.78583 3.9258-1.1738 2.539-0.753 5.0562-1.5154 7.4902-2.3144v-86.004h-11.416z"/><path fill="#0072af" d="m107.08 71.496c-5.963 0-11.926 2.2691-16.465 6.8066-9.06 9.09-9.06 23.847 0 32.934 3.019 2.992 6.6424 5.0045 10.482 6.0215 2.55 0.666 5.2031 0.91041 7.8281 0.69141-0.6-2.498-0.56502-5.1261 0.084-7.6211 0.698-2.605 2.0471-5.0659 4.0781-7.0879 2.567-2.57 5.8146-4.0607 9.1406-4.4707 2.559-0.305 5.1689-0.0014 7.5879 0.93164 0.563-2.582 0.67775-5.2453 0.34375-7.8633-0.626-4.942-2.8282-9.7302-6.6172-13.535-4.537-4.5375-10.5-6.8066-16.463-6.8066zm388.51 0c-5.9598 0-11.918 2.2691-16.453 6.8066-3.799 3.805-6.003 8.5929-6.623 13.547-0.32699 2.607-0.21915 5.2715 0.33985 7.8535 2.418-0.934 5.0401-1.2386 7.5801-0.93359 3.343 0.411 6.5845 1.9007 9.1465 4.4707 2.043 2.022 3.3933 4.4829 4.0723 7.0879 0.654 2.495 0.69565 5.1231 0.0977 7.6211 2.624 0.219 5.2713-0.0234 7.8203-0.68945 3.854-1.017 7.4705-3.0314 10.48-6.0234 9.076-9.087 9.076-23.844 0-32.934-4.541-4.5375-10.501-6.8066-16.461-6.8066zm-388.51 7.598c4.0112 0 8.022 1.5298 11.082 4.5898 2.131 2.131 3.511 4.7252 4.166 7.4492-5.329 0.427-10.541 2.6556-14.617 6.7266-3.279 3.285-5.3674 7.3052-6.2774 11.535-1.982-0.764-3.8394-1.9381-5.4394-3.5391-6.113-6.131-6.113-16.055 0-22.172 3.063-3.06 7.0747-4.5898 11.086-4.5898zm388.51 0c4.0124 0 8.024 1.5298 11.082 4.5898 6.125 6.117 6.125 16.043 0 22.174-1.601 1.6-3.4545 2.7741-5.4375 3.5391-0.915-4.23-2.9954-8.2521-6.2754-11.537-4.069-4.072-9.2933-6.2986-14.611-6.7246 0.649-2.725 2.0234-5.3202 4.1504-7.4512 3.0655-3.06 7.0794-4.5898 11.092-4.5898zm-213.6 40.686c-1.3342 0.0122-2.8356 0.12864-4.5254 0.36914-10.342 1.467-13.935 6.4588-13.268 11.174 0.879 6.069 7.2438 6.553 9.7168 6.748l8.748 0.6289c2.376 0.20701 3.1823 1.0331 3.3633 2.4141 0.468 3.283-3.8452 3.9005-4.6582 4.0215-5.7 0.813-6.2713-2.5069-6.4883-3.6699l-9.6211 1.3672c0.233 1.235 0.68773 4.0836 3.5527 6.0566 3.586 2.533 9.4508 2.1838 13.049 1.6758 8.668-1.227 14.859-5.0778 13.941-11.549-0.885-6.169-6.5158-6.5924-11.26-6.9434l-6.6562-0.49805c-1.436-0.109-3.6256-0.3367-3.9336-2.4707-0.237-1.731 1.3451-3.3054 4.1191-3.6934 4.598-0.669 4.994 2.4832 5.127 3.3672l9.7246-1.3945c-0.4305-2.7038-1.5921-7.6888-10.932-7.6035zm43.195 0.85352c-2.9547 0.0677-5.743 0.7575-8.3086 2.4844-3.768 2.545-5.536 6.3271-6.209 10.287-0.523 3.007-0.6316 7.7325 2.5664 11.73 3.242 4.023 9.0642 5.513 12.41 6.082 4.477 0.763 15.571 1.8665 17.166-7.1855l-9.916-1.6836c-0.391 1.092-1.4351 4.0837-6.4961 3.2227-7.395-1.261-6.1956-8.5643-5.8926-10.322 0.903-5.293 3.4283-9.4371 9.1953-8.4551 2.725 0.45999 4.9685 1.9491 4.8965 4.9531l9.8262 1.6699c0.13499-1.087 0.53364-3.6924-1.8184-6.6504-2.307-2.871-6.3516-4.7139-11.934-5.6719-1.881-0.318-3.7135-0.50159-5.4863-0.46094zm-69.512 4.4023-24.604 9.0625 10.137 27.48 24.967-9.209-1.9746-5.3418-15.977 5.8867-2.1621-5.875 14.703-5.416-1.9453-5.2734-14.703 5.416-2.1074-5.7051 15.611-5.7676-1.9453-5.2578zm105.22 5.8223c-1.4002-0.0209-2.8296 0.12734-4.2168 0.52734-5.548 1.611-8.2984 6.7971-9.1074 8.5781-4.482 9.971 1.6501 17.46 10.119 21.262 7.599 3.417 18.07 4.1926 22.865-6.4824 2.936-6.53 2.9494-15.762-9.7676-21.457-1.7535-0.7905-5.6921-2.3651-9.8926-2.4277zm-135.55 5.627-26.557 16.576 3.0801 4.9297 9.0312-5.6445 12.449 19.979 8.3027-5.1719-12.471-19.982 9.2461-5.7539-3.082-4.9316zm138.77 1.1426c1.1779-0.0329 2.4866 0.23953 3.9414 0.89453 1.945 0.87 3.8117 2.2505 4.4297 4.3125 0.441 1.61 0.67142 3.9484-1.0176 7.6934-1.664 3.708-4.9241 8.1182-11.246 5.2812-5.858-2.628-5.455-7.5468-3.541-11.801 1.5495-3.4432 3.9-6.2821 7.4336-6.3809zm39.629 16.123-29.277 13.922 7.4766 6.1426 5.5723-3.0527 10.807 8.8692-1.877 6.0957 8.4512 6.9414 7.9609-31.443-9.1133-7.4746zm0.51758 7.8262 0.10352 0.0957-4.332 12.373-7.3359-6.0098 11.564-6.459zm-217.74 2.6289-8.3594 8.3379 10.98 30.521 6.8516-6.832-2.4902-5.8535 9.8984-9.875 5.8809 2.459 7.7363-7.7188-30.498-11.039zm114.79 3.8555c-66.183 0-120.02 53.833-120.02 120.03 0 66.18 53.838 120.03 120.02 120.03 66.186 0 120.03-53.846 120.03-120.03 0-66.192-53.846-120.03-120.03-120.03zm-115.19 4.6387 11.881 5.5371-6.7051 6.7148-5.2793-12.143 0.10352-0.10938zm115.19 3.5879c61.643 0 111.79 50.162 111.79 111.8 0 61.639-50.149 111.79-111.79 111.79-61.643 0-111.79-50.148-111.79-111.79 0-61.637 50.152-111.8 111.79-111.8zm125.18 4.0918c-1.5738 0.0394-2.9975 0.55664-4.2031 1.4316-4.988 3.587-2.449 9.4635-1.457 11.73l3.5039 8.0312c0.927 2.195 0.5755 3.2967-0.5625 4.0957-2.697 1.953-5.2476-1.5732-5.7266-2.2402-3.374-4.666-0.69063-6.7242 0.23437-7.4512l-5.6953-7.8789c-0.985 0.778-3.2998 2.5089-3.7148 5.9609-0.567 4.349 2.4647 9.3783 4.5957 12.322 5.126 7.102 11.401 10.795 16.717 6.9668 5.039-3.647 2.8014-8.8314 0.90039-13.193l-2.6641-6.1309c-0.559-1.321-1.3878-3.3562 0.36524-4.6172 1.421-1.016 3.5592-0.34999 5.1992 1.916 2.718 3.768 0.12353 5.5851-0.60547 6.1191l5.75 7.9473c2.51-1.864 7.2108-5.9849-0.78125-17.047-4.202-5.8224-8.393-8.0495-11.855-7.9629zm-259.36 4.2559-16.65 26.498 4.9336 3.0898 5.6524-9.0137 19.93 12.527 5.207-8.2754-19.928-12.529 5.7812-9.207-4.9258-3.0898zm282.22 21.059-5.332 2.3262 4.2715 9.752-21.566 9.4297 3.9141 8.9648 21.566-9.4394 4.3574 9.9746 5.3359-2.3262-12.547-28.682zm-295.34 10.086c-3.0591-0.009-6.9668 1.909-10.379 10.646-3.797 9.73-1.2092 15.316 3.2188 17.047 5.712 2.228 9.2736-3.0894 10.643-5.1484l4.8594-7.2949c1.339-1.977 2.4542-2.2668 3.7402-1.7578 3.113 1.211 1.5177 5.2715 1.2227 6.0215-2.097 5.381-5.2726 4.2415-6.3926 3.8535l-3.5254 9.0664c1.184 0.411 3.8906 1.4149 7.0156-0.1211 3.968-1.878 6.555-7.1622 7.877-10.531 3.178-8.168 2.8712-15.447-3.2168-17.822-5.799-2.266-8.9441 2.4248-11.58 6.3848l-3.6894 5.5723c-0.821 1.19-2.0837 2.9703-4.0957 2.1953-1.623-0.644-2.2219-2.8003-1.2109-5.4043 1.696-4.337 4.6348-3.1395 5.4648-2.8125l3.5684-9.1465c-0.91406-0.34156-2.129-0.74376-3.5195-0.74805zm64.945 4.6953s10.146 21.375 10.146 50.139c0 1.467-0.0344 2.8608-0.10938 4.2168-0.792 15.789-5.7607 24.766-4.4277 41.414 1.45 18.371 6.6921 29.35 13.953 36.473 3.409 3.371 7.2752 5.864 11.408 7.877 3.647 1.77 7.4881 3.1632 11.414 4.4082 3.774 1.213 7.6089 2.2938 11.42 3.4668 3.888 1.213 7.7412 2.5451 11.406 4.2051 4.072 1.84 7.9318 4.0933 11.426 7.1113 2.032 1.758 3.9383 3.7697 5.6953 6.0957l0.0254 0.0488 0.0234-0.0488c1.751-2.326 3.6681-4.3377 5.7051-6.0957 3.49-3.019 7.35-5.2713 11.416-7.1113 3.681-1.66 7.5201-2.9921 11.412-4.2051 3.794-1.173 7.645-2.2538 11.416-3.4668 3.931-1.245 7.774-2.6392 11.416-4.4082 4.127-2.013 8-4.52 11.418-7.877 7.252-7.123 12.49-18.102 13.949-36.473 1.326-16.647-3.6465-25.625-4.4395-41.414-0.06-1.356-0.0977-2.7498-0.0977-4.2168 0-28.764 10.146-50.139 10.146-50.139h-164.72zm234.98 28.217c-1.0249-0.0398-1.9982 0.0155-2.877 0.13672-4.635 0.619-8.9419 3.2716-11.129 8.0586-1.987 4.373-1.7572 9.6216-1.2422 13.352 0.704 5.138 2.0079 10.178 3.7109 15.074l15.545-2.123-2.2383-16.354-5.5254 0.75977 1.0156 7.332-5.6484 0.77539c-0.524-1.732-0.96994-3.4888-1.2109-5.2578-0.795-5.804 1.4657-10.653 8.2637-11.586 4.872-0.667 10.035 1.0804 10.936 7.6484 0.363 2.628-0.0988 5.5729-3.0488 6.5039l1.332 9.7442c1.406-0.244 3.8106-0.61997 5.6816-3.418 2.048-3.116 2.3941-7.6941 1.6621-13.121-0.571-4.17-2.008-10.12-5.832-13.801-2.7885-2.6288-6.3199-3.6052-9.3945-3.7246zm-306.6 10.832c-3.8984 0.0821-8.0203 1.4637-10.904 5.8203-2.309 3.478-3.0359 8.9654-3.2949 13.109l-0.95898 14.732 29.287 1.9043 0.9707-14.83c0.155-2.413 0.42639-6.6545-0.47461-10.312-1.856-7.185-6.4826-9.9718-12.973-10.385-0.5435-0.0364-1.0954-0.0508-1.6524-0.0391zm-0.64844 10.014c0.492-0.0267 1.0148-0.0247 1.5703 0.0117 6.809 0.448 8.8615 4.702 8.4805 11.123l-0.26563 4.1543-18.098-1.1738 0.29297-3.8066c0.18094-2.7694 0.63953-9.9074 8.0195-10.309zm86.275 5.2949h5.5566 11.406 11.416 11.418 11.406 11.428 11.449 11.416 11.412 11.416 11.416 11.418 5.5469c0.335 6.883 1.414 12.479 2.459 17.906 1.407 7.196 2.7243 13.983 1.9883 23.193-1.085 13.703-4.2991 23.687-9.9941 30.861-1.184 1.489-2.4679 2.8706-3.8789 4.1406-2.31 2.071-4.8461 3.7687-7.5391 5.2207-3.56 1.905-7.407 3.3587-11.416 4.6797-2.435 0.8-4.9512 1.5624-7.4902 2.3144-1.3 0.388-2.6038 0.77479-3.9258 1.1758-3.839 1.175-7.6831 2.4347-11.412 4.0117-3.98 1.671-7.834 3.72-11.416 6.373-2.004 1.479-3.9135 3.1485-5.7285 5.0625-1.807-1.914-3.7267-3.5835-5.7207-5.0625-3.58-2.653-7.4328-4.6883-11.426-6.3613-3.72-1.588-7.5642-2.8494-11.406-4.0234-1.316-0.39999-2.6186-0.78582-3.9336-1.1738-2.533-0.753-5.0393-1.5155-7.4863-2.3145-4.011-1.32-7.86-2.7737-11.416-4.6797-2.696-1.452-5.22-3.1487-7.541-5.2207-1.401-1.27-2.6912-2.6526-3.8652-4.1426-5.701-7.175-8.9197-17.158-10.014-30.861-0.729-9.21 0.59619-15.995 1.9922-23.193 1.059-5.427 2.1418-11.023 2.4648-17.906zm217.4 14.529c-4.7326-0.0507-10.679 1.8233-12.205 15.143-0.497 4.374-0.5195 10.648 2.5625 14.406 1.9 2.421 5.3448 3.3548 8.5918 3.7188l16.879 1.9375 1.0703-9.377-17.047-1.9512c-2.901-0.328-6.9664-1.6355-6.2734-7.7285 0.27-2.349 1.2886-4.5334 3.0586-5.6484 1.32-0.813 2.9524-0.77575 4.5234-0.59375l17.338 1.9746 1.1094-9.7012-16.594-1.9531c-0.89381-0.0996-1.9215-0.21485-3.0137-0.22657zm-288.46 7.7891-5.6191 0.94336 2.8496 16.795-6.1738 1.043-2.6152-15.451-5.5312 0.94531 2.6172 15.439-6.0098 1.0273-2.7871-16.404-5.5332 0.93164 4.3965 25.857 28.852-4.8945-4.4453-26.232zm275.71 24.676-3.6641 8.957 4.5566 4.4356-5.2969 12.93-6.377 0.0117-4.1406 10.117 32.395-1.6465 4.4785-10.92-21.951-23.885zm-294.14 7.6992-5.459 2.0215 10.875 29.357 5.4629-2.0215-3.709-9.9844 22.074-8.1777-3.3965-9.1738-22.068 8.1894-3.7793-10.211zm299.17 9.8398 9.5781 9.1348-0.0586 0.14453-13.102-0.50977 3.582-8.7695zm-265.15 11.701-25.656 14.262 4.8477 8.7012 25.656-14.25-4.8477-8.7129zm242.06 11.186-6 7.6543 9.0273 7.0684-2.5 3.209c-2.696 3.417-3.7975 2.7345-6.8555 0.89453-2.261-1.345-4.1616-2.5309-5.9316-3.1719l-6.4824 8.2617c2.151 0.632 4.9449 2.2047 6.7129 3.1777 4.042 2.168 6.2533 3.4116 10.572-1.8184l0.11914 0.0996c-0.504 0.845-1.6606 2.638-2.1016 5.123-0.341 1.817-0.20864 3.8883 2.3184 5.8613 2.501 1.964 4.6115 1.8913 5.9805 1.6113 2.683-0.53 4.4101-2.2002 8.2871-7.1582l9.9746-12.713-23.121-18.1zm-236.12 1.0059-22.656 18.658 5.377 6.5293 16.83-13.979-9.3828 23.008 8.4863 10.311 22.658-18.66-5.4102-6.5664-17.543 14.562 9.9414-23.785-8.3008-10.078zm243.31 16.975 5.6738 4.4453-2.2344 2.8496c-1.734 2.215-4.0672 5.1864-6.9082 2.9434-0.74-0.57-1.9208-2.0373-1.0488-4.0723 0.308-0.798 0.96421-1.6336 2.2832-3.3066l2.2344-2.8594zm-30.412 10.359-12.055 8.7012c-1.951 1.416-5.4125 3.9126-7.6465 6.9316-4.367 6.009-3.567 11.338 0.25 16.607 2.548 3.53 6.5052 6.6287 12.449 6.0117 4.154-0.447 8.8389-3.3795 12.213-5.8145l11.967-8.6387-17.178-23.799zm-187.68 4.4238c-0.61426-0.007-1.2229 0.0407-1.8203 0.14844-3.028 0.484-5.52 3.0474-7.418 5.6914l-9.916 13.801 7.666 5.502 10.008-13.934c1.695-2.388 4.8105-5.3097 9.8125-1.7227 1.916 1.382 3.3198 3.332 3.4238 5.418 0.08 1.549-0.75073 2.953-1.6777 4.252l-10.17 14.164 7.9316 5.707 9.7891-13.549c2.8-3.898 7.7809-10.927-5.6191-20.549-3.1229-2.247-7.7099-4.8833-12.01-4.9297zm182.95 5.9707 10.615 14.699-3.1367 2.2051c-2.386 1.732-8.8201 6.3623-14.037-0.8457-3.996-5.538-2.0083-9.8281 3.1777-13.621l3.3809-2.4375zm-139.68 17.025c-2.756 0.78601-4.8038 1.1054-6.9238 1.1524l-2.2598 6.1543c1.677-0.061 3.4994-0.22986 5.0274-0.63086l-7.6387 20.803 9.3555 3.4414 10.303-28.021-7.8633-2.8984zm92.318 2.3984c-1.6847-0.0292-3.7198 0.21136-6.1836 0.89649-3.137 0.861-7.3914 2.7159-9.5664 6.6289-2.591 4.556-1.7363 9.7639-0.98829 12.504 0.795 2.86 2.7776 7.8512 7.5566 10.408 3.276 1.77 7.5366 1.6579 11.516 0.54492 11.046-3.065 13.01-11.024 10.717-19.279-1.579-5.717-4.281-8.4907-7.209-10.139-1.2038-0.72-3.034-1.5158-5.8418-1.5645zm-80.389 2.4492-0.99414 5.9961 18.041 2.9687-18.465 20.939 11.354 1.8652 17.145-21.205 0.98242-5.9355-28.062-4.6289zm45.312 3.1621c-0.54443-0.006-1.1118 0.006-1.7051 0.0352-9.02 0.423-14.686 5.0025-14.396 11.062 0.121 2.702 1.4382 5.0526 3.5762 6.7226 1.981 1.49 4.466 2.4849 9.25 2.2559 4.334-0.192 6.5399-1.6834 8.2109-3.4414 0.152 5.33-0.32769 9.1483-5.8047 9.4023-2.883 0.148-4.7508-1.0533-4.8828-2.7363l-9.4883 0.45899c0.164 1.245 0.41698 3.2579 2.459 4.8809 3.11 2.423 7.3251 3.0041 11.912 2.7871 4.434-0.217 9.0426-1.1637 12.225-4.8457 2.988-3.456 3.5023-8.0095 3.3203-11.438-0.141-3.102-0.80885-6.1714-2.3809-8.9434-1.3247-2.3175-4.1284-6.1154-12.295-6.2012zm32.717 0.44922c1.7444 0.13866 2.6103 1.2612 3.082 1.9609 1.285 1.938 2.3705 5.2462 2.7695 6.7012 0.182 0.628 1.501 5.389 0.62305 8.043-0.441 1.272-1.8085 2.3267-3.3535 2.7637-4.077 1.128-6.0051-1.9508-7.7031-8.0938-2.415-8.699-0.26366-10.372 2.5273-11.133 0.79425-0.22475 1.4732-0.28841 2.0547-0.24219zm-33.43 5.0234c3.763 0.14588 4.9369 2.6221 5.0156 4.4746 0.129 2.666-1.5723 4.725-5.4453 4.918-4.071 0.18201-5.5863-2.2398-5.6953-4.4687-0.126-2.583 1.5329-4.7249 5.3359-4.9219 0.27431-0.0119 0.5382-0.0117 0.78906-0.002z"/></g></svg>
