<svg viewBox="0 0 142 164" focusable="false" xmlns="http://www.w3.org/2000/svg"><path d="m.876 161.346 1.807-1.41c.806 1.296 1.896 1.997 3.288 1.997 1.522 0 2.482-.978 2.482-2.2 0-1.41-1.505-1.867-3.084-2.372-1.864-.603-3.874-1.353-3.874-3.879 0-2.086 1.864-3.749 4.395-3.749 2.083 0 3.385.807 4.435 2.029l-1.676 1.239c-.619-.962-1.539-1.467-2.76-1.467-1.391 0-2.294.831-2.294 1.899 0 1.32 1.448 1.752 3.027 2.274 1.88.644 3.93 1.45 3.93 4.009 0 2.111-1.724 4.124-4.565 4.124-2.352 0-3.947-.994-5.11-2.502v.008Zm13.86-11.426h4.509c2.913 0 4.964 2.111 4.964 4.817s-2.05 4.816-4.98 4.816h-2.442v4.1l-2.051-1.394v-12.347.008Zm2.05 1.883v5.851h2.312c1.88 0 3.06-1.279 3.06-2.917s-1.188-2.934-3.06-2.934h-2.311Zm13.738-1.883h2.108l5.038 13.741h-2.125l-1.074-2.934h-5.786l-1.05 2.934h-2.14l5.037-13.741h-.008Zm-1.131 8.843h4.362l-2.181-6.023-2.181 6.023Zm9.831-1.972c0-4.01 3.117-7.058 7.048-7.058a7.031 7.031 0 0 1 6.07 3.464l-1.781 1.108c-.847-1.581-2.352-2.6-4.29-2.6-2.856 0-4.996 2.258-4.996 5.086 0 2.828 2.14 5.044 4.98 5.044 2.125 0 3.646-1.165 4.436-2.82l1.84.978c-1.19 2.299-3.46 3.855-6.26 3.855-4.06 0-7.047-3.162-7.047-7.057Zm16.92-6.871h8.227l-1.391 1.94h-4.794v3.936h6.185l-1.391 1.94h-4.794v3.969h6.185l-1.391 1.956h-6.836V149.92Zm19.173 0h8.228l-1.392 1.94H77.36v3.936h6.185l-1.392 1.94H77.36v5.925l-2.05-1.394V149.92h.007Zm10.548 6.871c0-3.896 3.14-7.058 7.031-7.058 3.89 0 7.048 3.162 7.048 7.058a7.045 7.045 0 0 1-7.048 7.057c-3.906 0-7.031-3.162-7.031-7.057Zm12.028 0c0-2.788-2.181-5.086-4.997-5.086s-4.98 2.298-4.98 5.086c0 2.787 2.18 5.061 4.98 5.061 2.8 0 4.997-2.274 4.997-5.061Zm5.64-6.871h4.264c2.914 0 4.851 1.973 4.851 4.483 0 1.825-1.018 3.553-2.971 4.156l3.272 5.102h-2.352l-4.135-6.553h1.107c2.051 0 3.028-1.45 3.028-2.713 0-1.541-.993-2.576-3.011-2.576h-2.011v11.842l-2.05-1.394V149.92h.008Zm12.321 6.871c0-4.01 3.117-7.058 7.048-7.058a7.031 7.031 0 0 1 6.071 3.464l-1.782 1.108c-.847-1.581-2.352-2.6-4.289-2.6-2.857 0-4.997 2.258-4.997 5.086 0 2.828 2.14 5.044 4.981 5.044 2.124 0 3.645-1.165 4.435-2.82l1.839.978c-1.18 2.299-3.459 3.855-6.258 3.855-4.061 0-7.048-3.162-7.048-7.057Zm17.033-6.871h8.228l-1.391 1.94h-4.794v3.936h6.185l-1.391 1.94h-4.794v3.969h6.185l-1.391 1.956h-6.837V149.92Zm-104.992-9.828v-2.347h-.96v2.347c0 .913-.472 1.483-1.343 1.483-.87 0-1.334-.578-1.334-1.491v-2.347h-.96v2.347c0 1.434.846 2.379 2.303 2.379 1.456 0 2.294-.953 2.294-2.371Zm9.31 2.51v-4.865h-.951v2.632c0 .073.008.302.008.302l-3.711-3.154v4.889h.96v-2.583c0-.082-.008-.367-.008-.367l3.703 3.146Zm5.763-.196v-4.661h-.96v4.661h.96Zm8.463-3.789v-.872H47.07v.872h1.71v3.789h.943v-3.789h1.709Zm6.918 1.866v-.831h-2.002v-1.035h2.58v-.872h-3.532v4.661h3.54v-.872h-2.588v-1.043h2.002v-.008Zm6.633 1.923h-1.848v-4.661h1.848c1.416 0 2.514 1.043 2.514 2.339s-1.098 2.331-2.514 2.331v-.009Zm-.033-3.806h-.854v2.934h.854c.887 0 1.595-.652 1.595-1.458 0-.807-.708-1.467-1.595-1.467v-.009Zm23.365.017v-.872h-4.362v.872h1.709v3.789h.944v-3.789h1.709Zm15.211 0v-.872h-4.363v.872h1.709v3.789h.945v-3.789H103.525Zm6.941 1.866v-.831h-2.002v-1.035h2.58v-.872h-3.532v4.661h3.54v-.872h-2.588v-1.043h2.002v-.008Zm-16.577-2.82-2.393 4.735h.985l.431-.88h1.945l.432.88h.984l-2.392-4.735h.008Zm-.619 3.105.619-1.247.618 1.247h-1.245.008Zm-14.624-1.116c-.887-.212-1.042-.359-1.042-.677 0-.293.277-.497.692-.497.415 0 .797.147 1.204.457l.041.032.488-.692-.04-.033a2.603 2.603 0 0 0-1.685-.587c-.944 0-1.611.571-1.611 1.386 0 .872.57 1.181 1.554 1.418.846.195.993.358.993.652 0 .326-.293.529-.757.529-.513 0-.944-.179-1.408-.578l-.04-.033-.546.652.04.033a2.85 2.85 0 0 0 1.938.741c1.017 0 1.684-.554 1.684-1.426 0-.733-.44-1.133-1.505-1.393v.016Zm38.575 0c-.887-.212-1.041-.359-1.041-.677 0-.293.276-.497.691-.497.415 0 .798.147 1.205.457l.04.032.489-.692-.041-.033a2.604 2.604 0 0 0-1.685-.587c-.944 0-1.611.571-1.611 1.386 0 .872.57 1.181 1.554 1.418.847.195.993.358.993.652 0 .326-.293.529-.757.529-.512 0-.944-.179-1.407-.578l-.041-.033-.545.652.04.033a2.853 2.853 0 0 0 1.937.741c1.018 0 1.685-.554 1.685-1.426 0-.733-.44-1.133-1.506-1.393v.016ZM79.183 82.164l-6.315 1.817-1.807 6.325-1.815-6.325-6.315-1.817 6.315-1.817 1.815-6.316 1.807 6.316 6.315 1.817ZM45.58 106.597l13.689-16.683 8.862-58.653-26.816 80.707 27.011-16.227-6.2-3.708-16.538 14.564h-.008Zm28.403-75.344 8.862 58.653 13.689 16.691-16.537-14.564-6.202 3.709 27.019 16.226-26.831-80.715Zm39.47 96.199-42.4-25.395-42.4 25.411L71.06.228l42.4 127.224h-.008Zm-42.4-28.557 37.517 22.477L71.06 8.801 33.536 121.372l37.526-22.477h-.008Z"></path></svg>